<svg width="16" height="16" viewBox="0 0 16 16" fill="none" xmlns="http://www.w3.org/2000/svg">
<path fill-rule="evenodd" clip-rule="evenodd" d="M15.4998 7.99942V11.2487C15.4923 12.0973 15.2281 12.9236 14.7419 13.6191C14.2556 14.3146 13.5702 14.8467 12.7758 15.1452C12.1 15.3974 11.382 15.5172 10.6609 15.498H5.0242C4.11496 15.5188 3.2208 15.2634 2.45981 14.7654C1.54034 14.1963 0.879166 13.2909 0.616869 12.242C0.5415 11.9215 0.502299 11.5936 0.5 11.2645V4.84898C0.5 3.7479 0.807906 2.75917 1.59228 1.96145C2.33327 1.1618 3.33969 0.658671 4.42412 0.545778C4.96066 0.497498 5.4972 0.499021 6.02695 0.500524C6.16291 0.50091 6.29842 0.501295 6.43337 0.500836H10.7396C11.7127 0.500836 12.6477 0.658133 13.4793 1.19744C14.4015 1.74813 15.0755 2.63367 15.3604 3.66925C15.4465 4.0224 15.491 4.38439 15.493 4.74786C15.5035 5.46993 15.5 6.192 15.4965 6.91407C15.4948 7.2751 15.493 7.63614 15.493 7.99717L15.4998 7.99942ZM12.6837 3.9589C12.6784 4.10404 12.6304 4.24441 12.5458 4.36248C12.4612 4.48055 12.3437 4.57109 12.208 4.62279C12.0722 4.67449 11.9243 4.68507 11.7825 4.65321C11.6408 4.62135 11.5116 4.54845 11.4111 4.44362C11.3105 4.33879 11.2431 4.20667 11.2172 4.06376C11.1913 3.92084 11.208 3.77347 11.2654 3.64003C11.3228 3.50659 11.4181 3.39299 11.5397 3.31343C11.6612 3.23386 11.8035 3.19185 11.9487 3.19264C12.1467 3.20021 12.334 3.28434 12.4711 3.42729C12.6082 3.57024 12.6844 3.76084 12.6837 3.9589ZM6.0883 10.5922C6.65337 10.9806 7.32069 11.1933 8.00635 11.2035C8.93355 11.2083 9.82501 10.8462 10.4861 10.1961C11.1472 9.5461 11.5242 8.66097 11.5349 7.73397C11.5362 7.04836 11.3346 6.37769 10.9556 5.80631C10.5766 5.23493 10.0371 4.78836 9.40491 4.52277C8.77273 4.25718 8.07611 4.18443 7.40267 4.31366C6.72923 4.4429 6.10906 4.76835 5.62014 5.24908C5.13123 5.72982 4.79541 6.34437 4.65492 7.01544C4.51444 7.68651 4.57556 8.38412 4.83061 9.02055C5.08565 9.65697 5.52323 10.2038 6.0883 10.5922ZM5.99153 9.07506C5.73277 8.6738 5.59935 8.20459 5.60827 7.72723C5.61774 7.09662 5.87556 6.49518 6.32578 6.05345C6.77601 5.61172 7.3823 5.36533 8.01309 5.36777C8.49061 5.36785 8.9573 5.51008 9.35369 5.77632C9.75007 6.04256 10.0582 6.42076 10.2388 6.86273C10.4194 7.3047 10.4644 7.79043 10.3679 8.25802C10.2714 8.72561 10.0378 9.1539 9.69701 9.4883C9.35618 9.8227 8.92349 10.0481 8.45408 10.1357C7.98467 10.2234 7.49979 10.1693 7.06123 9.98039C6.62267 9.79149 6.25029 9.47633 5.99153 9.07506Z" fill="#373334"/>
</svg>
