<svg width="16" height="16" viewBox="0 0 16 16" fill="none" xmlns="http://www.w3.org/2000/svg">
<path fill-rule="evenodd" clip-rule="evenodd" d="M16 8C16 9.84991 15.3721 11.5532 14.3178 12.9083L11.049 12.0298L10.9088 11.9767L11.1826 11.8186C11.574 11.517 11.9302 11.1724 12.2445 10.7911C12.5601 10.3907 12.8058 9.93981 12.9714 9.45739C13.0238 9.37005 13.0583 9.27316 13.0729 9.17232C13.0876 9.07149 13.0821 8.96872 13.0568 8.86997C13.0315 8.77123 12.9868 8.67846 12.9255 8.59706C12.8641 8.51566 12.7872 8.44724 12.6992 8.39575C12.5752 8.30022 12.426 8.24307 12.27 8.23134C12.114 8.21961 11.9581 8.25382 11.8214 8.32975C11.6004 8.46325 11.426 8.66182 11.3221 8.89833C11.2032 9.15809 11.0618 9.40693 10.8996 9.64199C10.4051 10.3051 9.74153 10.8229 8.97823 11.1413C8.47356 11.3699 7.93038 11.5016 7.3769 11.5295C7.24939 11.53 7.12477 11.5197 7.00016 11.5094C6.87554 11.4991 6.75093 11.4888 6.62342 11.4892C6.42888 11.4715 6.23466 11.5255 6.07726 11.6411C5.91987 11.7566 5.81015 11.9258 5.76872 12.1168C5.73259 12.2525 5.72966 12.3951 5.76017 12.5323C5.79069 12.6696 5.85376 12.7975 5.94405 12.9053C6.07261 13.0348 6.24048 13.1179 6.42127 13.1416C7.39775 13.3205 8.40511 13.1979 9.30963 12.7903L9.76929 12.659L9.74905 12.7926L9.35193 14.4234L8.94549 15.9447C8.63541 15.9812 8.3199 16 8 16C3.58172 16 0 12.4183 0 8C0 3.58172 3.58172 0 8 0C12.4183 0 16 3.58172 16 8ZM11.6237 13.9528L12.9392 14.2936C12.2987 14.797 11.5794 15.2047 10.8028 15.4953L10.8168 15.4425L10.8628 15.2696L11.2208 13.9294C11.2439 13.843 11.2804 13.8219 11.3577 13.8504L11.6237 13.9528ZM7.47988 3.54629C6.79758 3.50213 6.11781 3.66195 5.52698 4.00545C4.74095 4.45925 4.16667 5.20607 3.92953 6.08284C3.6924 6.95961 3.81167 7.8951 4.26131 8.68504C4.59808 9.28088 5.10415 9.76329 5.71518 10.071C6.32622 10.3786 7.01464 10.4977 7.69295 10.413C8.37126 10.3282 9.00883 10.0436 9.52463 9.59518C10.0404 9.14676 10.4112 8.55484 10.5897 7.89464C10.7683 7.23443 10.7466 6.53576 10.5275 5.88741C10.3083 5.23907 9.90153 4.67032 9.35888 4.25346C8.81623 3.8366 8.16219 3.59045 7.47988 3.54629ZM6.47816 8.5169C6.17747 8.36348 5.92879 8.12444 5.7635 7.82994C5.65315 7.63332 5.58271 7.41684 5.55625 7.19298C5.52979 6.96912 5.54783 6.74229 5.60933 6.52554C5.67082 6.30879 5.77456 6.10641 5.91457 5.93005C6.05458 5.75368 6.2281 5.60681 6.42515 5.49789C6.72028 5.33474 7.05719 5.26277 7.39339 5.29105C7.72959 5.31933 8.05002 5.4466 8.31426 5.6568C8.57851 5.86701 8.77473 6.15073 8.87819 6.47219C8.98164 6.79365 8.9877 7.13845 8.89559 7.4631C8.80348 7.78775 8.61733 8.07771 8.36062 8.29642C8.10391 8.51513 7.78813 8.65278 7.45312 8.69202C7.11811 8.73125 6.77886 8.67032 6.47816 8.5169Z" fill="#373334"/>
</svg>
