<svg width="20" height="18" viewBox="0 0 20 18" fill="none" xmlns="http://www.w3.org/2000/svg">
<path d="M13.6071 16.5578C14.3913 16.7679 15.1976 16.706 15.8777 16.3843C17.2819 15.72 17.7052 14.1401 16.8213 12.8628L9.8122 2.73349C9.24769 1.91682 8.36643 1.31469 7.33221 1.03757C6.29782 0.760411 5.2336 0.841249 4.33635 1.26625C3.43847 1.6909 2.81449 2.4079 2.57935 3.28547C2.34416 4.16321 2.52557 5.09598 3.09079 5.91227L8.60871 13.8853C8.7744 14.1247 9.12161 14.2177 9.38465 14.0933C9.64781 13.9688 9.72676 13.6742 9.5611 13.4347L4.04335 5.46171C3.63833 4.87653 3.50845 4.2081 3.67687 3.57955C3.84526 2.95111 4.29266 2.43697 4.93589 2.1326C5.57925 1.82834 6.34151 1.77027 7.08267 1.96887C7.82369 2.16742 8.4548 2.59884 8.85983 3.18402L15.8688 13.3133C16.4218 14.1131 16.1569 15.1018 15.2781 15.5179C14.426 15.9203 13.2168 15.5963 12.6801 14.8217L7.97365 8.01995C7.84567 7.83501 7.80291 7.61503 7.85605 7.4167C7.90993 7.2156 8.0534 7.05087 8.25999 6.95317C8.68488 6.75217 9.24944 6.9025 9.51666 7.28989L12.7309 11.9353C12.8964 12.1747 13.2438 12.2678 13.5069 12.1432C13.77 12.0188 13.849 11.7241 13.6833 11.4848L10.4692 6.83943C9.87125 5.97544 8.61129 5.63783 7.66044 6.08684C7.19933 6.3049 6.87906 6.67291 6.75855 7.12266C6.63964 7.56644 6.73546 8.0576 7.02114 8.47044L11.7276 15.2723C12.1558 15.891 12.8231 16.3477 13.6071 16.5578Z" fill="white"/>
<path fill-rule="evenodd" clip-rule="evenodd" d="M16.8213 12.8628C17.7052 14.1401 17.2819 15.72 15.8777 16.3843C15.5886 16.5211 15.2766 16.6109 14.9533 16.6528C14.516 16.7095 14.0579 16.6785 13.6071 16.5578C13.1565 16.437 12.7444 16.2348 12.3941 15.9672C12.135 15.7692 11.9097 15.5354 11.7276 15.2723L7.02114 8.47044C6.82643 8.18905 6.71991 7.87128 6.70947 7.55693C6.7046 7.41007 6.72069 7.26396 6.75855 7.12266C6.87906 6.67291 7.19933 6.3049 7.66044 6.08684C7.83424 6.00477 8.01838 5.94898 8.2069 5.91788C8.71582 5.83393 9.25677 5.92991 9.7131 6.17456C9.84347 6.24446 9.96694 6.3265 10.0808 6.41994C10.2284 6.54112 10.3599 6.68148 10.4692 6.83943L13.6833 11.4848C13.7903 11.6394 13.7953 11.8171 13.7144 11.9571C13.6701 12.0338 13.6 12.0992 13.5069 12.1432C13.2438 12.2678 12.8964 12.1747 12.7309 11.9353L9.51666 7.28989C9.4869 7.24674 9.45344 7.20653 9.4169 7.16942C9.1619 6.91044 8.75665 6.8024 8.40642 6.89896C8.35628 6.91279 8.30727 6.9308 8.25999 6.95317C8.0534 7.05087 7.90993 7.2156 7.85605 7.4167C7.80291 7.61503 7.84567 7.83501 7.97365 8.01995L12.6801 14.8217C12.7733 14.9563 12.8868 15.0772 13.0152 15.1831C13.2564 15.3821 13.5502 15.5279 13.8608 15.6112C14.1714 15.6944 14.4989 15.715 14.8074 15.6632C14.9714 15.6357 15.1302 15.5877 15.2781 15.5179C16.1569 15.1018 16.4218 14.1131 15.8688 13.3133L11.0913 6.40895L8.85983 3.18402C8.73656 3.00591 8.59234 2.84205 8.43045 2.69466C8.06045 2.3578 7.59816 2.10699 7.08267 1.96887C6.56714 1.83073 6.04139 1.81677 5.55255 1.92347C5.33861 1.97017 5.13174 2.03998 4.93589 2.1326C4.29266 2.43697 3.84526 2.95111 3.67687 3.57955C3.50845 4.2081 3.63833 4.87653 4.04335 5.46171L6.41554 8.88947L9.5611 13.4347C9.67312 13.5966 9.67329 13.7838 9.5803 13.9265C9.53577 13.9948 9.46987 14.053 9.38465 14.0933C9.12161 14.2177 8.7744 14.1247 8.60871 13.8853L3.09079 5.91227C2.52557 5.09598 2.34416 4.16321 2.57935 3.28547C2.81449 2.4079 3.43847 1.6909 4.33635 1.26625C4.65939 1.11323 5.00408 1.00483 5.36123 0.941685C5.99605 0.829446 6.67024 0.8602 7.33221 1.03757C7.99414 1.21494 8.59341 1.52543 9.08708 1.9401C9.36474 2.17333 9.60899 2.43951 9.8122 2.73349L16.8213 12.8628ZM12.8609 12.0538C12.8608 12.0536 12.8611 12.054 12.8609 12.0538Z" fill="white"/>
</svg>
