<svg width="29" height="28" viewBox="0 0 29 28" fill="none" xmlns="http://www.w3.org/2000/svg">
<path d="M17.0901 10.5609C17.0901 11.2695 17.0624 11.9373 17.0584 12.597C17.0498 12.9568 17.0912 13.316 17.1814 13.6639C17.236 13.8859 17.3583 14.0842 17.5304 14.2299C17.573 14.2642 17.6228 14.2876 17.6759 14.2983C17.729 14.3089 17.7839 14.3064 17.8358 14.291C18.0211 14.2302 18.1906 14.1272 18.3316 13.9896C18.6707 13.6687 18.9765 13.3126 19.2439 12.9268C20.1924 11.5788 20.9745 10.1153 21.5722 8.56969C21.6793 8.30908 21.7824 8.05254 21.8816 7.78785C21.9525 7.58555 22.0938 7.41732 22.2783 7.31549C22.3937 7.27185 22.5162 7.25113 22.6392 7.25441C22.6947 7.25441 22.7542 7.25441 22.8137 7.25441H26.7802C27.0499 7.25441 27.3196 7.25441 27.5735 7.25441C27.7099 7.27245 27.8433 7.30944 27.9701 7.36435C28.0729 7.39517 28.1628 7.46041 28.2253 7.5497C28.2878 7.63899 28.3195 7.74719 28.3152 7.85708C28.3152 8.13664 28.2613 8.41344 28.1565 8.67149C27.8906 9.33257 27.5554 9.96201 27.157 10.5487C26.4153 11.7133 25.5704 12.8006 24.7771 13.9123C24.5114 14.2828 24.2615 14.6656 24.0235 15.0525C23.8826 15.2665 23.8181 15.5241 23.841 15.7814C23.8749 16.0306 23.9862 16.2619 24.1583 16.441C24.4479 16.7587 24.7414 17.0722 25.0508 17.3695C25.8797 18.1291 26.6576 18.9453 27.3791 19.8127C27.7155 20.2245 28.0055 20.6739 28.2438 21.1524C28.3023 21.2816 28.3424 21.4187 28.3628 21.5596C28.3987 21.7154 28.3844 21.879 28.3222 22.0258C28.26 22.1726 28.1532 22.2948 28.0177 22.3741C27.7526 22.546 27.4467 22.6404 27.1332 22.6469C25.9631 22.6795 24.793 22.6713 23.6268 22.7406C22.8768 22.778 22.1414 22.5186 21.5722 22.0157C21.1424 21.653 20.7442 21.2524 20.3823 20.8185C19.9856 20.3747 19.6168 19.9267 19.1924 19.5032C19.012 19.3215 18.8078 19.1666 18.5855 19.0431C18.443 18.9535 18.274 18.9191 18.109 18.946C17.9439 18.9728 17.7936 19.0592 17.6851 19.1897C17.4887 19.4327 17.3513 19.7203 17.2845 20.0285C17.1573 20.4984 17.0867 20.9825 17.0743 21.4701C17.0683 21.5914 17.0564 21.7124 17.0386 21.8325C17.0163 21.9865 16.9524 22.131 16.8543 22.2498C16.7562 22.3685 16.6277 22.4567 16.4833 22.5044C16.291 22.587 16.0848 22.6299 15.8764 22.6306C15.3528 22.6306 14.8293 22.6306 14.2898 22.6306C13.3657 22.6196 12.4509 22.439 11.5887 22.0972C10.0318 21.495 8.63875 20.5174 7.52704 19.2467C6.42384 18.0007 5.44085 16.6479 4.59187 15.2072C3.24717 12.969 2.05441 10.6383 1.02207 8.23171C0.954688 8.07296 0.928716 7.89895 0.946705 7.72677C0.950514 7.6624 0.971366 7.60031 1.00701 7.54721C1.04266 7.49411 1.09175 7.452 1.14899 7.42544C1.34458 7.32405 1.56056 7.27105 1.77966 7.2707H5.72231C5.95611 7.28695 6.18028 7.37257 6.36758 7.51715C6.55488 7.66173 6.69724 7.85904 6.77738 8.08511C7.11793 9.0094 7.5277 9.90523 8.00301 10.7645C8.51761 11.7212 9.0968 12.6396 9.73635 13.5132C9.9533 13.8363 10.2214 14.1199 10.5296 14.3521C10.6278 14.4363 10.7483 14.4883 10.8756 14.5014C11.0029 14.5144 11.1311 14.488 11.2436 14.4254C11.3666 14.3498 11.4626 14.2356 11.5173 14.0996C11.6613 13.7598 11.7498 13.398 11.7791 13.0286C11.8657 12.1683 11.8829 11.302 11.8306 10.4388C11.821 9.92351 11.7692 9.40999 11.6759 8.9036C11.6521 8.77737 11.6085 8.65521 11.5847 8.52897C11.5561 8.41158 11.503 8.30197 11.429 8.20775C11.355 8.11353 11.262 8.03695 11.1563 7.98331C10.8841 7.80957 10.5754 7.70488 10.256 7.6779C10.1647 7.6779 10.133 7.62904 10.1727 7.5476C10.2066 7.46653 10.2521 7.39106 10.3075 7.32363C10.5976 6.99976 10.9893 6.79078 11.4142 6.73318C12.0297 6.62473 12.654 6.577 13.2784 6.59066C13.9725 6.59066 14.6706 6.59066 15.3687 6.63545C15.6716 6.65517 15.9719 6.70564 16.2651 6.78612C16.4986 6.83376 16.7096 6.96108 16.8637 7.14738C17.0178 7.33368 17.106 7.56801 17.1139 7.81228C17.1477 8.2049 17.1596 8.59918 17.1496 8.99319C17.1417 9.52663 17.11 10.0641 17.0901 10.5609Z" fill="#373334"/>
</svg>
